HIERARCHY
ROOT mixamorig:Hips
{
	OFFSET -0.000008 104.274872 1.554316
	CHANNELS 6 Xposition Yposition Zposition Xrotation Yrotation Zrotation
	JOINT mixamorig:Spine
	{
		OFFSET -0.000005 10.181595 0.131519
		CHANNELS 6 Xposition Yposition Zposition Xrotation Yrotation Zrotation
		JOINT mixamorig:Spine1
		{
			OFFSET -0.000000 9.893959 -1.470707
			CHANNELS 6 Xposition Yposition Zposition Xrotation Yrotation Zrotation
			JOINT mixamorig:Spine2
			{
				OFFSET -0.000000 9.220757 -1.370641
				CHANNELS 6 Xposition Yposition Zposition Xrotation Yrotation Zrotation
				JOINT mixamorig:Neck
				{
					OFFSET 0.000001 16.740417 -2.049036
					CHANNELS 6 Xposition Yposition Zposition Xrotation Yrotation Zrotation
					JOINT mixamorig:Head
					{
						OFFSET 0.000000 9.617874 1.685006
						CHANNELS 6 Xposition Yposition Zposition Xrotation Yrotation Zrotation
						JOINT mixamorig:HeadTop_End
						{
							OFFSET 0.000002 22.037354 7.501101
							CHANNELS 6 Xposition Yposition Zposition Xrotation Yrotation Zrotation
							End Site
							{
								OFFSET 0.000168 2310.654297 -282.823242
							}
						}
					}
				}
				JOINT mixamorig:RightShoulder
				{
					OFFSET -4.569970 11.014908 -2.160885
					CHANNELS 6 Xposition Yposition Zposition Xrotation Yrotation Zrotation
					JOINT mixamorig:RightArm
					{
						OFFSET -10.592851 -0.524811 -2.232101
						CHANNELS 6 Xposition Yposition Zposition Xrotation Yrotation Zrotation
						JOINT mixamorig:RightForeArm
						{
							OFFSET -27.841511 0.000031 -0.000004
							CHANNELS 6 Xposition Yposition Zposition Xrotation Yrotation Zrotation
							JOINT mixamorig:RightHand
							{
								OFFSET -28.328831 -0.000015 0.000015
								CHANNELS 6 Xposition Yposition Zposition Xrotation Yrotation Zrotation
								JOINT mixamorig:RightHandThumb1
								{
									OFFSET -2.464806 -1.573990 2.681852
									CHANNELS 6 Xposition Yposition Zposition Xrotation Yrotation Zrotation
									JOINT mixamorig:RightHandThumb2
									{
										OFFSET -3.215179 -1.872803 1.924282
										CHANNELS 6 Xposition Yposition Zposition Xrotation Yrotation Zrotation
										JOINT mixamorig:RightHandThumb3
										{
											OFFSET -2.654831 -1.527969 1.512609
											CHANNELS 6 Xposition Yposition Zposition Xrotation Yrotation Zrotation
											JOINT mixamorig:RightHandThumb4
											{
												OFFSET -2.018814 -1.152008 1.108052
												CHANNELS 6 Xposition Yposition Zposition Xrotation Yrotation Zrotation
												End Site
												{
													OFFSET -188.809540 -114.533607 132.431396
												}
											}
										}
									}
								}
								JOINT mixamorig:RightHandIndex1
								{
									OFFSET -9.108284 -0.517868 2.259835
									CHANNELS 6 Xposition Yposition Zposition Xrotation Yrotation Zrotation
									JOINT mixamorig:RightHandIndex2
									{
										OFFSET -3.699989 0.000000 0.001215
										CHANNELS 6 Xposition Yposition Zposition Xrotation Yrotation Zrotation
										JOINT mixamorig:RightHandIndex3
										{
											OFFSET -2.850006 0.000031 -0.000522
											CHANNELS 6 Xposition Yposition Zposition Xrotation Yrotation Zrotation
											JOINT mixamorig:RightHandIndex4
											{
												OFFSET -2.772186 -0.000015 -0.000020
												CHANNELS 6 Xposition Yposition Zposition Xrotation Yrotation Zrotation
												End Site
												{
													OFFSET -277.218445 0.000000 -0.050231
												}
											}
										}
									}
								}
								JOINT mixamorig:RightHandMiddle1
								{
									OFFSET -9.532516 -0.000031 -0.000023
									CHANNELS 6 Xposition Yposition Zposition Xrotation Yrotation Zrotation
									JOINT mixamorig:RightHandMiddle2
									{
										OFFSET -3.700005 -0.000015 0.003713
										CHANNELS 6 Xposition Yposition Zposition Xrotation Yrotation Zrotation
										JOINT mixamorig:RightHandMiddle3
										{
											OFFSET -2.949974 0.000015 -0.002054
											CHANNELS 6 Xposition Yposition Zposition Xrotation Yrotation Zrotation
											JOINT mixamorig:RightHandMiddle4
											{
												OFFSET -2.946640 0.000000 -0.000156
												CHANNELS 6 Xposition Yposition Zposition Xrotation Yrotation Zrotation
												End Site
												{
													OFFSET -294.664337 0.000000 -0.113670
												}
											}
										}
									}
								}
								JOINT mixamorig:RightHandRing1
								{
									OFFSET -9.103600 -0.043076 -1.865134
									CHANNELS 6 Xposition Yposition Zposition Xrotation Yrotation Zrotation
									JOINT mixamorig:RightHandRing2
									{
										OFFSET -3.379288 0.000000 -0.001055
										CHANNELS 6 Xposition Yposition Zposition Xrotation Yrotation Zrotation
										JOINT mixamorig:RightHandRing3
										{
											OFFSET -2.889687 -0.000015 0.000379
											CHANNELS 6 Xposition Yposition Zposition Xrotation Yrotation Zrotation
											JOINT mixamorig:RightHandRing4
											{
												OFFSET -2.638809 -0.000015 0.000941
												CHANNELS 6 Xposition Yposition Zposition Xrotation Yrotation Zrotation
												End Site
												{
													OFFSET -263.880371 0.000000 0.516020
												}
											}
										}
									}
								}
								JOINT mixamorig:RightHandPinky1
								{
									OFFSET -8.076683 -0.486710 -3.806280
									CHANNELS 6 Xposition Yposition Zposition Xrotation Yrotation Zrotation
									JOINT mixamorig:RightHandPinky2
									{
										OFFSET -3.600014 -0.000015 -0.003747
										CHANNELS 6 Xposition Yposition Zposition Xrotation Yrotation Zrotation
										JOINT mixamorig:RightHandPinky3
										{
											OFFSET -2.099983 0.000000 -0.005739
											CHANNELS 6 Xposition Yposition Zposition Xrotation Yrotation Zrotation
											JOINT mixamorig:RightHandPinky4
											{
												OFFSET -2.115768 -0.000031 -0.003680
												CHANNELS 6 Xposition Yposition Zposition Xrotation Yrotation Zrotation
												End Site
												{
													OFFSET -211.577087 0.000000 -0.350686
												}
											}
										}
									}
								}
							}
						}
					}
				}
				JOINT mixamorig:LeftShoulder
				{
					OFFSET 4.570447 11.014725 -2.160855
					CHANNELS 6 Xposition Yposition Zposition Xrotation Yrotation Zrotation
					JOINT mixamorig:LeftArm
					{
						OFFSET 10.592371 -0.524597 -2.232119
						CHANNELS 6 Xposition Yposition Zposition Xrotation Yrotation Zrotation
						JOINT mixamorig:LeftForeArm
						{
							OFFSET 27.841532 -0.000031 0.000026
							CHANNELS 6 Xposition Yposition Zposition Xrotation Yrotation Zrotation
							JOINT mixamorig:LeftHand
							{
								OFFSET 28.328846 -0.000061 0.000022
								CHANNELS 6 Xposition Yposition Zposition Xrotation Yrotation Zrotation
								JOINT mixamorig:LeftHandThumb1
								{
									OFFSET 2.466141 -1.576172 2.681732
									CHANNELS 6 Xposition Yposition Zposition Xrotation Yrotation Zrotation
									JOINT mixamorig:LeftHandThumb2
									{
										OFFSET 3.217812 -1.872070 1.916482
										CHANNELS 6 Xposition Yposition Zposition Xrotation Yrotation Zrotation
										JOINT mixamorig:LeftHandThumb3
										{
											OFFSET 2.656029 -1.528778 1.514513
											CHANNELS 6 Xposition Yposition Zposition Xrotation Yrotation Zrotation
											JOINT mixamorig:LeftHandThumb4
											{
												OFFSET 2.020889 -1.154053 1.115139
												CHANNELS 6 Xposition Yposition Zposition Xrotation Yrotation Zrotation
												End Site
												{
													OFFSET 190.885437 -115.081749 130.048782
												}
											}
										}
									}
								}
								JOINT mixamorig:LeftHandIndex1
								{
									OFFSET 9.109314 -0.518021 2.259871
									CHANNELS 6 Xposition Yposition Zposition Xrotation Yrotation Zrotation
									JOINT mixamorig:LeftHandIndex2
									{
										OFFSET 3.699989 0.000000 -0.000322
										CHANNELS 6 Xposition Yposition Zposition Xrotation Yrotation Zrotation
										JOINT mixamorig:LeftHandIndex3
										{
											OFFSET 2.850006 0.000000 0.000352
											CHANNELS 6 Xposition Yposition Zposition Xrotation Yrotation Zrotation
											JOINT mixamorig:LeftHandIndex4
											{
												OFFSET 2.774864 -0.000031 -0.000027
												CHANNELS 6 Xposition Yposition Zposition Xrotation Yrotation Zrotation
												End Site
												{
													OFFSET 277.486267 0.000000 -0.009857
												}
											}
										}
									}
								}
								JOINT mixamorig:LeftHandMiddle1
								{
									OFFSET 9.533394 0.000061 0.000044
									CHANNELS 6 Xposition Yposition Zposition Xrotation Yrotation Zrotation
									JOINT mixamorig:LeftHandMiddle2
									{
										OFFSET 3.699989 -0.000015 -0.000231
										CHANNELS 6 Xposition Yposition Zposition Xrotation Yrotation Zrotation
										JOINT mixamorig:LeftHandMiddle3
										{
											OFFSET 2.949997 -0.000015 -0.000059
											CHANNELS 6 Xposition Yposition Zposition Xrotation Yrotation Zrotation
											JOINT mixamorig:LeftHandMiddle4
											{
												OFFSET 2.952896 0.000031 0.000063
												CHANNELS 6 Xposition Yposition Zposition Xrotation Yrotation Zrotation
												End Site
												{
													OFFSET 295.289337 0.000000 0.022810
												}
											}
										}
									}
								}
								JOINT mixamorig:LeftHandRing1
								{
									OFFSET 9.104523 -0.042999 -1.865074
									CHANNELS 6 Xposition Yposition Zposition Xrotation Yrotation Zrotation
									JOINT mixamorig:LeftHandRing2
									{
										OFFSET 3.150009 -0.000031 0.000043
										CHANNELS 6 Xposition Yposition Zposition Xrotation Yrotation Zrotation
										JOINT mixamorig:LeftHandRing3
										{
											OFFSET 2.949982 -0.000015 0.000040
											CHANNELS 6 Xposition Yposition Zposition Xrotation Yrotation Zrotation
											JOINT mixamorig:LeftHandRing4
											{
												OFFSET 2.644348 0.000000 0.000057
												CHANNELS 6 Xposition Yposition Zposition Xrotation Yrotation Zrotation
												End Site
												{
													OFFSET 264.434631 0.000000 0.012105
												}
											}
										}
									}
								}
								JOINT mixamorig:LeftHandPinky1
								{
									OFFSET 8.077789 -0.486847 -3.806259
									CHANNELS 6 Xposition Yposition Zposition Xrotation Yrotation Zrotation
									JOINT mixamorig:LeftHandPinky2
									{
										OFFSET 3.599953 0.000031 0.014727
										CHANNELS 6 Xposition Yposition Zposition Xrotation Yrotation Zrotation
										JOINT mixamorig:LeftHandPinky3
										{
											OFFSET 2.100021 0.000015 0.007705
											CHANNELS 6 Xposition Yposition Zposition Xrotation Yrotation Zrotation
											JOINT mixamorig:LeftHandPinky4
											{
												OFFSET 2.125504 0.000031 0.007517
												CHANNELS 6 Xposition Yposition Zposition Xrotation Yrotation Zrotation
												End Site
												{
													OFFSET 212.550781 0.000000 0.625752
												}
											}
										}
									}
								}
							}
						}
					}
				}
			}
		}
	}
	JOINT mixamorig:RightUpLeg
	{
		OFFSET -8.207787 -6.751648 -1.599560
		CHANNELS 6 Xposition Yposition Zposition Xrotation Yrotation Zrotation
		JOINT mixamorig:RightLeg
		{
			OFFSET -0.000002 -44.370117 0.345942
			CHANNELS 6 Xposition Yposition Zposition Xrotation Yrotation Zrotation
			JOINT mixamorig:RightFoot
			{
				OFFSET 0.000003 -44.423679 -3.043532
				CHANNELS 6 Xposition Yposition Zposition Xrotation Yrotation Zrotation
				JOINT mixamorig:RightToeBase
				{
					OFFSET -0.000002 -8.728671 10.710558
					CHANNELS 6 Xposition Yposition Zposition Xrotation Yrotation Zrotation
					JOINT mixamorig:RightToe_End
					{
						OFFSET -0.000001 -0.000679 9.278119
						CHANNELS 6 Xposition Yposition Zposition Xrotation Yrotation Zrotation
						End Site
						{
							OFFSET 0.000000 -0.067690 927.812134
						}
					}
				}
			}
		}
	}
	JOINT mixamorig:LeftUpLeg
	{
		OFFSET 8.207793 -6.751686 -1.599556
		CHANNELS 6 Xposition Yposition Zposition Xrotation Yrotation Zrotation
		JOINT mixamorig:LeftLeg
		{
			OFFSET -0.000004 -44.370014 0.346954
			CHANNELS 6 Xposition Yposition Zposition Xrotation Yrotation Zrotation
			JOINT mixamorig:LeftFoot
			{
				OFFSET -0.000001 -44.423672 -3.044401
				CHANNELS 6 Xposition Yposition Zposition Xrotation Yrotation Zrotation
				JOINT mixamorig:LeftToeBase
				{
					OFFSET -0.000002 -8.728669 10.710558
					CHANNELS 6 Xposition Yposition Zposition Xrotation Yrotation Zrotation
					JOINT mixamorig:LeftToe_End
					{
						OFFSET -0.000003 -0.000679 9.278133
						CHANNELS 6 Xposition Yposition Zposition Xrotation Yrotation Zrotation
						End Site
						{
							OFFSET 0.000000 -0.068021 927.813477
						}
					}
				}
			}
		}
	}
}
MOTION
Frames: 3
Frame Time: 0.033333
0.000006 104.270477 1.554256 0.000010 0.000003 -0.000113 -0.000005 10.181587 0.131522 0.000001 -0.000003 0.000084 -0.000000 9.893967 -1.470711 0.000001 0.000000 -0.000000 -0.000000 9.220802 -1.370642 0.000000 -0.000000 -0.000000 0.000001 16.740433 -2.049030 0.000000 -0.000000 -0.000000 0.000000 9.617859 1.685014 0.000000 0.000000 0.000000 0.000002 22.037384 7.501101 0.000000 -0.000000 0.000000 -4.569968 11.014880 -2.160881 0.000008 0.000001 -0.000038 -10.592878 -0.524750 -2.231934 74.896139 25.164833 -19.401834 -27.841522 0.000014 0.000555 -57.331426 106.003231 71.925198 -28.328846 0.000006 0.000023 -0.000316 -0.000048 0.000008 -2.464463 -1.573950 2.682418 -24.707893 -154.175265 37.441932 -3.215272 -1.872566 1.924637 155.785796 33.169349 11.991617 -2.654941 -1.527898 1.513103 151.610788 25.251163 -42.579338 -2.018831 -1.151982 1.108062 -0.000005 0.000000 0.000004 -9.108411 -0.517565 2.260143 102.151742 18.812617 -23.243238 -3.700059 0.000293 0.001527 99.450662 16.288126 -19.144513 -2.850092 0.000363 -0.000244 98.382755 12.879276 -14.893827 -2.772170 -0.000001 -0.000016 0.000001 -0.000000 -0.000000 -9.532594 0.000265 0.000251 93.548620 16.656606 -17.857197 -3.700066 0.000330 0.003978 93.004972 13.181735 -13.784257 -2.950069 0.000332 -0.001816 91.445899 11.795593 -12.087577 -2.946633 -0.000015 -0.000156 -0.000002 -0.000000 0.000000 -9.103695 -0.042761 -1.864865 92.455114 17.740325 -18.457319 -3.379322 0.000301 -0.000803 92.880498 9.880881 -10.406114 -2.889741 0.000361 0.000627 94.222378 6.355543 -6.889557 -2.638808 -0.000020 0.000938 0.000002 0.000001 -0.000001 -8.076766 -0.486378 -3.806018 85.979002 16.965200 -15.688921 -3.600039 0.000301 -0.003512 89.770078 8.235560 -7.850073 -2.100015 0.000314 -0.005491 90.275478 5.233200 -5.039261 -2.115790 -0.000039 -0.003680 0.000003 -0.000001 -0.000004 4.570446 11.014691 -2.160851 -0.000018 0.000010 -0.000021 10.592384 -0.524482 -2.232345 74.378397 -6.954210 5.279313 27.841833 0.000069 -0.000201 104.603473 -70.866689 85.270561 28.328840 -0.000028 0.000019 0.000023 -0.000088 -0.000000 2.466095 -1.576180 2.681901 -20.017895 152.492484 -44.190918 3.217823 -1.871741 1.916390 162.264299 -29.402882 10.494758 2.656113 -1.528641 1.514472 139.425758 -27.752633 51.796931 2.020879 -1.154065 1.115153 0.000002 0.000002 0.000004 9.109370 -0.517845 2.259736 88.468271 -16.340090 15.902499 3.700036 0.000164 -0.000466 85.248008 -12.773912 11.779100 2.850048 0.000213 0.000201 84.695507 -10.765761 9.816223 2.774895 -0.000032 -0.000030 -0.000000 -0.000001 -0.000000 9.533461 0.000219 -0.000094 90.174999 -15.278022 15.315390 3.700056 0.000191 -0.000380 89.972361 -11.046322 11.038392 2.950057 0.000179 -0.000186 91.189453 -13.772368 14.061461 2.952860 -0.000014 0.000060 0.000003 0.000000 -0.000001 9.104595 -0.042847 -1.865227 87.498391 -14.190438 13.591632 3.150049 0.000233 -0.000104 92.074918 -10.647138 11.039342 2.950046 0.000188 -0.000090 95.354925 -11.797081 12.947120 2.644309 0.000016 0.000054 -0.000000 0.000002 0.000000 8.077845 -0.486730 -3.806398 75.997343 -16.186210 13.140994 3.600001 0.000192 0.014570 80.496778 -13.434343 11.821227 2.100015 0.000194 0.007545 84.953435 -12.027834 11.461253 2.125521 -0.000013 0.007517 -0.000000 -0.000000 -0.000001 -8.207786 -6.751667 -1.599560 -0.077001 -0.000003 0.000080 -0.000002 -44.370110 0.345938 0.153719 -0.000000 -0.000000 0.000000 -44.423679 -3.043532 -0.076700 0.000000 -0.000002 -0.000006 -8.728667 10.710559 -0.000009 -0.000000 -0.000000 -0.000001 -0.000679 9.278123 0.000000 -0.000000 -0.000000 8.207792 -6.751710 -1.599556 -0.074518 -0.000003 0.000081 -0.000002 -44.370014 0.346960 0.148822 0.000002 0.000000 -0.000001 -44.423664 -3.044403 -0.074314 0.000000 -0.000002 -0.000004 -8.728671 10.710558 0.000007 -0.000000 -0.000000 0.000000 -0.000680 9.278137 -0.000000 0.000000 -0.000001 
0.000006 104.270477 1.554256 0.000010 0.000003 -0.000113 -0.000005 10.181587 0.131522 0.000001 -0.000003 0.000084 -0.000000 9.893967 -1.470711 0.000001 0.000000 -0.000000 -0.000000 9.220802 -1.370642 0.000000 -0.000000 -0.000000 0.000001 16.740433 -2.049030 0.000000 -0.000000 -0.000000 0.000000 9.617859 1.685014 0.000000 0.000000 0.000000 0.000002 22.037384 7.501101 0.000000 -0.000000 0.000000 -4.569968 11.014880 -2.160881 0.000008 0.000001 -0.000038 -10.592873 -0.524763 -2.231891 74.288088 29.602364 -22.637255 -27.841530 0.000016 0.000516 -55.863014 105.125470 69.405814 -28.328808 0.000007 0.000029 -0.000321 -0.000043 0.000004 -2.464418 -1.573837 2.682344 -42.300144 -158.621568 2.869206 -3.215261 -1.872522 1.924628 149.757717 33.066377 20.047491 -2.654969 -1.527863 1.513052 147.109639 27.572000 -30.075939 -2.018834 -1.151995 1.108062 -0.000007 -0.000001 0.000002 -9.108362 -0.517560 2.260125 100.116927 15.271084 -18.246453 -3.700082 0.000317 0.001509 96.579216 12.749125 -14.262683 -2.850081 0.000373 -0.000271 95.133586 9.917027 -10.841595 -2.772149 -0.000013 -0.000019 -0.000000 0.000001 0.000000 -9.532573 0.000283 0.000227 93.413362 13.942201 -14.937084 -3.700055 0.000332 0.003963 91.579511 11.179049 -11.393259 -2.950049 0.000343 -0.001811 93.164730 10.661307 -11.255856 -2.946625 0.000003 -0.000156 -0.000001 0.000001 0.000000 -9.103689 -0.042767 -1.864873 92.156068 16.098920 -16.662018 -3.379335 0.000319 -0.000812 91.419548 8.798607 -9.036031 -2.889744 0.000349 0.000637 97.889452 5.685375 -6.577215 -2.638827 -0.000001 0.000941 -0.000003 -0.000000 0.000001 -8.076734 -0.486397 -3.806041 85.907585 15.637605 -14.432062 -3.600019 0.000283 -0.003545 87.668422 6.325991 -5.742803 -2.100012 0.000331 -0.005485 92.296674 3.382490 -3.299987 -2.115780 -0.000053 -0.003680 0.000002 -0.000001 -0.000005 4.570446 11.014691 -2.160851 -0.000018 0.000010 -0.000021 10.592384 -0.524480 -2.232349 74.122449 -7.278495 5.500214 27.841839 0.000066 -0.000204 104.758163 -70.939014 85.506250 28.328833 -0.000028 0.000025 0.000022 -0.000089 -0.000000 2.466285 -1.576046 2.681821 10.273305 169.930189 -105.606916 3.217854 -1.871809 1.916406 169.450518 -25.886367 23.106641 2.656111 -1.528663 1.514478 142.911996 -26.091702 59.403590 2.020890 -1.154071 1.115147 0.000002 0.000003 0.000006 9.109402 -0.517864 2.259737 88.946412 -20.152193 19.779702 3.700038 0.000160 -0.000469 86.769207 -11.889623 11.257500 2.850040 0.000205 0.000204 85.325100 -8.699046 8.017898 2.774878 -0.000030 -0.000028 -0.000001 0.000001 0.000001 9.533482 0.000199 -0.000101 88.339085 -18.675472 18.141978 3.700046 0.000197 -0.000379 91.067479 -9.500859 9.676065 2.950061 0.000192 -0.000218 91.808152 -9.976102 10.297244 2.952866 -0.000016 0.000060 0.000001 0.000000 -0.000000 9.104614 -0.042843 -1.865232 88.097235 -17.713664 17.145605 3.150053 0.000217 -0.000092 93.108845 -10.911140 11.517742 2.950027 0.000193 -0.000090 94.435609 -9.788796 10.575073 2.644319 0.000030 0.000054 0.000002 0.000001 -0.000001 8.077863 -0.486723 -3.806411 79.992997 -19.249061 16.704401 3.600019 0.000168 0.014567 81.735426 -16.086584 14.397796 2.100052 0.000185 0.007541 83.869477 -12.296698 11.490368 2.125495 -0.000015 0.007507 -0.000000 0.000004 0.000000 -8.207786 -6.751667 -1.599560 -0.077001 -0.000003 0.000080 -0.000002 -44.370110 0.345938 0.153719 -0.000000 -0.000000 0.000000 -44.423679 -3.043532 -0.076700 0.000000 -0.000002 -0.000006 -8.728667 10.710559 -0.000009 -0.000000 -0.000000 -0.000001 -0.000679 9.278123 0.000000 -0.000000 -0.000000 8.207792 -6.751710 -1.599556 -0.074518 -0.000003 0.000081 -0.000002 -44.370014 0.346960 0.148822 0.000002 0.000000 -0.000001 -44.423664 -3.044403 -0.074314 0.000000 -0.000002 -0.000004 -8.728671 10.710558 0.000007 -0.000000 -0.000000 0.000000 -0.000680 9.278137 -0.000000 0.000000 -0.000001 
0.000006 104.270477 1.554256 0.000010 0.000003 -0.000113 -0.000005 10.181587 0.131522 0.000001 -0.000003 0.000084 -0.000000 9.893967 -1.470711 0.000001 0.000000 -0.000000 -0.000000 9.220802 -1.370642 0.000000 -0.000000 -0.000000 0.000001 16.740433 -2.049030 0.000000 -0.000000 -0.000000 0.000000 9.617859 1.685014 0.000000 0.000000 0.000000 0.000002 22.037384 7.501101 0.000000 -0.000000 0.000000 -4.569968 11.014880 -2.160881 0.000008 0.000001 -0.000038 -10.592861 -0.524788 -2.231845 74.164516 39.573672 -30.423206 -27.841537 0.000022 0.000547 -55.287823 102.786547 66.525612 -28.328815 0.000023 0.000031 -0.000324 -0.000048 0.000008 -2.464401 -1.573816 2.682330 -44.458944 -159.593176 -1.973475 -3.215271 -1.872532 1.924630 149.742076 33.024170 19.754953 -2.654962 -1.527854 1.513048 147.200918 27.655856 -29.049870 -2.018830 -1.151997 1.108064 -0.000004 -0.000005 0.000000 -9.108378 -0.517551 2.260130 100.218123 15.150362 -18.135283 -3.700063 0.000320 0.001521 96.766808 12.205744 -13.699724 -2.850085 0.000381 -0.000262 94.950421 9.359837 -10.200333 -2.772156 -0.000017 -0.000019 0.000001 -0.000001 0.000000 -9.532585 0.000273 0.000236 93.553606 13.691680 -14.706914 -3.700052 0.000334 0.003948 91.902600 10.614304 -10.874464 -2.950047 0.000321 -0.001826 93.993375 10.153289 -10.875075 -2.946642 0.000015 -0.000156 -0.000001 -0.000000 0.000001 -9.103695 -0.042749 -1.864867 92.691493 15.531970 -16.223484 -3.379326 0.000334 -0.000823 91.647909 8.055682 -8.307449 -2.889746 0.000357 0.000636 98.794889 5.235622 -6.158297 -2.638795 -0.000000 0.000946 -0.000001 0.000001 0.000001 -8.076732 -0.486382 -3.806021 86.060390 15.093427 -13.961891 -3.600008 0.000274 -0.003550 86.921862 5.348589 -4.746533 -2.099988 0.000334 -0.005500 92.114779 2.460240 -2.335786 -2.115773 -0.000051 -0.003676 0.000001 0.000004 -0.000005 4.570446 11.014691 -2.160851 -0.000018 0.000010 -0.000021 10.592426 -0.524471 -2.232387 73.654943 -22.532750 16.969369 27.841820 0.000048 -0.000179 105.706145 -74.031389 89.727328 28.328846 -0.000027 0.000022 0.000025 -0.000089 0.000000 2.466244 -1.576039 2.681830 9.103438 169.984011 -104.463604 3.217858 -1.871810 1.916409 166.615840 -23.836148 31.469793 2.656097 -1.528657 1.514472 142.642108 -26.586404 53.807517 2.020895 -1.154052 1.115153 0.000003 0.000003 0.000004 9.109386 -0.517841 2.259748 91.679464 -19.062629 19.605817 3.700053 0.000172 -0.000469 89.998309 -11.369647 11.385915 2.850045 0.000210 0.000200 88.114358 -8.292365 8.023548 2.774886 -0.000029 -0.000027 0.000005 0.000001 0.000000 9.533474 0.000216 -0.000079 89.403420 -18.126103 17.932484 3.700037 0.000203 -0.000364 93.317193 -9.162513 9.703680 2.950033 0.000215 -0.000200 93.760281 -9.113762 9.732550 2.952867 -0.000014 0.000061 0.000001 -0.000001 -0.000000 9.104594 -0.042851 -1.865215 87.886045 -17.532358 16.908386 3.150049 0.000237 -0.000103 95.873009 -11.884896 13.161419 2.950020 0.000189 -0.000069 96.785823 -9.900655 11.143121 2.644319 0.000030 0.000058 0.000000 0.000001 -0.000001 8.077848 -0.486722 -3.806401 80.597100 -19.372582 16.987422 3.600015 0.000178 0.014562 81.260284 -17.081096 15.141517 2.100036 0.000185 0.007563 82.725694 -12.495739 11.440050 2.125512 -0.000030 0.007516 0.000001 0.000003 -0.000001 -8.207786 -6.751667 -1.599560 -0.077001 -0.000003 0.000080 -0.000002 -44.370110 0.345938 0.153719 -0.000000 -0.000000 0.000000 -44.423679 -3.043532 -0.076700 0.000000 -0.000002 -0.000006 -8.728667 10.710559 -0.000009 -0.000000 -0.000000 -0.000001 -0.000679 9.278123 0.000000 -0.000000 -0.000000 8.207792 -6.751710 -1.599556 -0.074518 -0.000003 0.000081 -0.000002 -44.370014 0.346960 0.148822 0.000002 0.000000 -0.000001 -44.423664 -3.044403 -0.074314 0.000000 -0.000002 -0.000004 -8.728671 10.710558 0.000007 -0.000000 -0.000000 0.000000 -0.000680 9.278137 -0.000000 0.000000 -0.000001 
